<svg width="190" height="25" viewBox="0 0 210 25" fill="none" xmlns="http://www.w3.org/2000/svg">
<path d="M14.742 0.747999V4.31H9.906V19H5.46V4.31H0.624V0.747999H14.742ZM32.7813 0.747999V19H28.3353V11.486H21.4193V19H16.9733V0.747999H21.4193V7.898H28.3353V0.747999H32.7813ZM40.4369 4.31V8.002H46.3909V11.434H40.4369V15.438H47.1709V19H35.9909V0.747999H47.1709V4.31H40.4369ZM70.7273 0.747999V19H66.2813V8.054L62.1993 19H58.6113L54.5033 8.028V19H50.0573V0.747999H55.3093L60.4313 13.384L65.5013 0.747999H70.7273ZM78.3705 4.31V8.002H84.3245V11.434H78.3705V15.438H85.1045V19H73.9245V0.747999H85.1045V4.31H78.3705ZM104.709 20.066V24.33H88.5889V20.066H104.709ZM117.586 19L113.79 12.11H112.724V19H108.278V0.747999H115.74C117.179 0.747999 118.401 0.999333 119.406 1.502C120.429 2.00467 121.191 2.698 121.694 3.582C122.197 4.44867 122.448 5.41933 122.448 6.494C122.448 7.70733 122.101 8.79067 121.408 9.744C120.732 10.6973 119.727 11.3733 118.392 11.772L122.604 19H117.586ZM112.724 8.964H115.48C116.295 8.964 116.901 8.76467 117.3 8.366C117.716 7.96733 117.924 7.404 117.924 6.676C117.924 5.98267 117.716 5.43667 117.3 5.038C116.901 4.63933 116.295 4.44 115.48 4.44H112.724V8.964ZM129.685 4.31V8.002H135.639V11.434H129.685V15.438H136.419V19H125.239V0.747999H136.419V4.31H129.685ZM146.143 0.747999C148.067 0.747999 149.749 1.12933 151.187 1.892C152.626 2.65467 153.735 3.72933 154.515 5.116C155.313 6.48533 155.711 8.07133 155.711 9.874C155.711 11.6593 155.313 13.2453 154.515 14.632C153.735 16.0187 152.617 17.0933 151.161 17.856C149.723 18.6187 148.05 19 146.143 19H139.305V0.747999H146.143ZM145.857 15.152C147.539 15.152 148.847 14.6927 149.783 13.774C150.719 12.8553 151.187 11.5553 151.187 9.874C151.187 8.19267 150.719 6.884 149.783 5.948C148.847 5.012 147.539 4.544 145.857 4.544H143.751V15.152H145.857ZM166.828 19.182C165.112 19.182 163.535 18.7833 162.096 17.986C160.675 17.1887 159.539 16.0793 158.69 14.658C157.858 13.2193 157.442 11.6073 157.442 9.822C157.442 8.03667 157.858 6.43333 158.69 5.012C159.539 3.59067 160.675 2.48133 162.096 1.684C163.535 0.886666 165.112 0.488 166.828 0.488C168.544 0.488 170.113 0.886666 171.534 1.684C172.973 2.48133 174.099 3.59067 174.914 5.012C175.746 6.43333 176.162 8.03667 176.162 9.822C176.162 11.6073 175.746 13.2193 174.914 14.658C174.082 16.0793 172.955 17.1887 171.534 17.986C170.113 18.7833 168.544 19.182 166.828 19.182ZM166.828 15.126C168.284 15.126 169.445 14.6407 170.312 13.67C171.196 12.6993 171.638 11.4167 171.638 9.822C171.638 8.21 171.196 6.92733 170.312 5.974C169.445 5.00333 168.284 4.518 166.828 4.518C165.355 4.518 164.176 4.99467 163.292 5.948C162.425 6.90133 161.992 8.19267 161.992 9.822C161.992 11.434 162.425 12.7253 163.292 13.696C164.176 14.6493 165.355 15.126 166.828 15.126ZM194.963 19H190.517L183.081 7.742V19H178.635V0.747999H183.081L190.517 12.058V0.747999H194.963V19ZM202.632 4.31V8.002H208.586V11.434H202.632V15.438H209.366V19H198.186V0.747999H209.366V4.31H202.632Z" fill="#2f3772"/>
</svg>
