<svg width="58" height="59" viewBox="0 0 58 59">
<g opacity="0.7">
<path d="M58 18.0308C58 14.7444 55.3581 12.0714 52.1113 12.0714C51.3103 12.0714 50.6613 12.7282 50.6613 13.5388C50.6613 14.3494 51.3103 15.0062 52.1113 15.0062C53.7596 15.0062 55.1 16.3633 55.1 18.0308C55.1 19.6989 53.759 21.056 52.1113 21.056C52.1037 21.056 52.0973 21.0583 52.0898 21.0583C49.6712 17.7238 46.1906 14.9475 41.9479 13.1303C42.1996 12.2322 42.34 11.2954 42.34 10.3369C42.34 4.63757 37.758 0 32.1262 0C26.4938 0 21.9118 4.63698 21.9118 10.3369C21.9118 10.9221 21.9664 11.4991 22.0609 12.0644C21.9223 12.106 21.7802 12.1424 21.6427 12.1859C21.4519 12.2463 21.2582 12.3103 21.0569 12.3807C19.0385 10.2888 15.0006 7.0893 10.2196 8.58311C9.82756 8.70578 9.50508 8.99046 9.33224 9.36729C9.1594 9.74411 9.15244 10.1773 9.3131 10.5594C10.6448 13.7284 11.5374 17.3118 11.2114 18.1552C10.8872 18.4922 10.4818 18.9001 10.052 19.3321C9.08342 20.3065 7.9849 21.4111 7.36314 22.1589C6.88986 22.7024 4.05482 23.2565 1.41525 23.3211C0.623547 23.3422 -0.00633195 24.0008 4.80408e-05 24.802L0.080088 34.4252C0.083568 34.8225 0.245968 35.2011 0.529588 35.4752L9.14258 43.7784C9.28758 43.9721 9.43606 44.1634 9.5886 44.353L14.8324 58.062C15.0487 58.6273 15.5858 59 16.1849 59H21.2361C21.964 59 22.5794 58.4535 22.674 57.7228L23.3044 52.8463C27.945 54.0149 33.002 54.0238 37.6472 52.8727L38.2748 57.7228C38.3693 58.4535 38.9847 59 39.7126 59H44.7638C45.3624 59 45.9001 58.6273 46.1158 58.062L51.2639 44.6025C54.2706 40.9792 55.8575 36.7249 55.8575 32.2822C55.8575 29.3004 55.1116 26.4032 53.7486 23.7513C56.2008 23.0311 58 20.7414 58 18.0308ZM32.1262 2.9348C36.159 2.9348 39.44 6.25523 39.44 10.3369C39.44 13.3756 37.5637 16.1437 34.767 17.2402C33.3842 16.9596 31.9638 16.8099 30.5283 16.8099C29.8752 16.8099 29.2285 16.8487 28.5859 16.9062L28.6236 16.8358C26.2723 15.5351 24.8118 13.0446 24.8118 10.3358C24.8113 6.25582 28.0929 2.9348 32.1262 2.9348ZM48.901 42.8844C48.7931 43.0112 48.7078 43.1556 48.6481 43.3117L43.7703 56.0652H40.9851L40.306 50.8195C40.2503 50.3911 40.0113 50.0084 39.6517 49.7753C39.2921 49.5417 38.8496 49.4813 38.4413 49.6081C35.9107 50.3975 33.2485 50.7978 30.5277 50.7978C27.7727 50.7978 25.0775 50.387 22.5162 49.5764C22.1067 49.4472 21.663 49.5071 21.3023 49.7401C20.9415 49.9731 20.7008 50.3564 20.6451 50.7861L19.9625 56.0646H17.1767L12.2079 43.0728C12.151 42.9243 12.0704 42.7864 11.9701 42.6637C11.7688 42.419 11.5745 42.1701 11.3878 41.9177C11.3396 41.8531 11.2863 41.7921 11.2283 41.7358L2.97487 33.7789L2.91165 26.1849C5.02458 26.0252 8.34508 25.5368 9.58106 24.0507C10.1205 23.4021 11.1703 22.3461 12.0965 21.4146C12.5675 20.941 13.01 20.4955 13.3754 20.1133C14.924 18.4252 13.8342 14.279 12.6655 11.134C15.6351 11.1 18.1877 13.4737 19.553 15.0567C19.9515 15.5174 20.5906 15.6806 21.1561 15.464C21.6712 15.268 22.1009 15.116 22.5092 14.9868C22.6531 14.9411 22.8004 14.9029 22.9454 14.8601C23.4297 15.8667 24.0747 16.79 24.8565 17.5924C24.6286 17.6557 24.3971 17.7086 24.1715 17.7802C23.3369 18.0443 22.5185 18.3642 21.739 18.7305C21.0128 19.0721 20.6973 19.9443 21.0349 20.6798C21.3724 21.4146 22.2343 21.7334 22.9611 21.3923C23.6252 21.0801 24.3241 20.8071 25.038 20.5811C28.1915 19.581 31.7527 19.4794 34.9839 20.2877C36.8213 20.7478 38.5201 21.4821 40.0322 22.4706C40.2758 22.6296 40.5484 22.7054 40.8175 22.7054C41.2931 22.7054 41.7594 22.4682 42.0373 22.0333C42.4717 21.3524 42.278 20.4444 41.6057 20.0048C40.6383 19.3726 39.6036 18.8373 38.5207 18.3865C39.407 17.6604 40.1621 16.7894 40.7647 15.8186C48.1847 18.977 52.9575 25.3842 52.9575 32.2816C52.9575 36.0933 51.5545 39.7601 48.901 42.8844Z" fill="#375E77"/>
<path d="M15.3358 26.1203C16.1366 26.1203 16.7858 25.4633 16.7858 24.6529C16.7858 23.8425 16.1366 23.1855 15.3358 23.1855C14.535 23.1855 13.8858 23.8425 13.8858 24.6529C13.8858 25.4633 14.535 26.1203 15.3358 26.1203Z" fill="#375E77"/>
</g>
</svg>
