<svg width="61" height="60" viewBox="0 0 61 60" fill="none" xmlns="http://www.w3.org/2000/svg">
<rect width="61" height="60" fill="#E5E5E5"/>
<g id="08. SIMOA Bead" clip-path="url(#clip0)">
<rect width="1920" height="6341" transform="translate(-995 -3477)" fill="white"/>
<rect id="Rectangle 2" opacity="0.1" x="-995" y="-543" width="1920" height="865" fill="#375E77"/>
<g id="Group 189">
<g id="Group 185">
<path id="Vector" d="M9.40209 43.3324L9.40186 43.3323C0.0756145 36.3812 -2.23763 24.1008 3.96503 14.7242C8.04898 8.55419 14.8329 4.86416 22.0631 4.0895L22.0632 4.08949C24.9406 3.78058 27.7459 3.10179 30.4148 2.07019C36.8964 -0.431565 44.5869 -0.00959567 50.8792 3.80974C58.7243 8.57249 62.0242 17.1681 59.8394 25.0028L59.8393 25.0029C58.7122 29.0506 58.2241 33.2565 58.7965 37.4324L58.7965 37.4326C59.4404 42.1125 58.2448 47.0301 54.9872 51.222C48.3295 59.7816 35.232 62.0776 25.546 56.3446C23.3346 55.0323 21.4772 53.4203 19.9922 51.6105C17.7805 48.912 14.945 46.7244 11.8504 44.9418C11.0139 44.4579 10.1952 43.9242 9.40209 43.3324Z" stroke="#375E77" stroke-opacity="0.7"/>
<g id="Vector_2" opacity="0.7">
<path d="M28.5886 25.9803C29.9955 25.9803 31.136 24.8812 31.136 23.5255C31.136 22.1697 29.9955 21.0707 28.5886 21.0707C27.1818 21.0707 26.0413 22.1697 26.0413 23.5255C26.0413 24.8812 27.1818 25.9803 28.5886 25.9803Z" fill="#375E77"/>
<path d="M30.2267 30.5788C31.1103 30.5788 31.8266 29.8886 31.8266 29.0371C31.8266 28.1856 31.1103 27.4953 30.2267 27.4953C29.3431 27.4953 28.6268 28.1856 28.6268 29.0371C28.6268 29.8886 29.3431 30.5788 30.2267 30.5788Z" fill="#375E77"/>
<path d="M34.3774 30.7026C34.9505 30.7026 35.4151 30.2549 35.4151 29.7026C35.4151 29.1503 34.9505 28.7026 34.3774 28.7026C33.8043 28.7026 33.3397 29.1503 33.3397 29.7026C33.3397 30.2549 33.8043 30.7026 34.3774 30.7026Z" fill="#375E77"/>
<path d="M37.8444 33.8731C38.7894 33.8731 39.5554 33.1349 39.5554 32.2243C39.5554 31.3137 38.7894 30.5755 37.8444 30.5755C36.8995 30.5755 36.1335 31.3137 36.1335 32.2243C36.1335 33.1349 36.8995 33.8731 37.8444 33.8731Z" fill="#375E77"/>
<path d="M46.3332 32.7326L42.8766 32.2945C42.8975 32.1072 42.9113 31.9199 42.9113 31.7293C42.9113 30.7494 42.6268 29.833 42.1374 29.0504L45.3372 27.2578C45.7051 27.0505 45.83 26.5956 45.6148 26.2411C45.3997 25.8866 44.9277 25.7662 44.5598 25.9736L41.1483 27.8866C40.1905 27.0438 38.9133 26.5288 37.5147 26.5288C37.1885 26.5288 36.8727 26.4819 36.5777 26.395L39.4235 24.7997C39.7914 24.5923 39.9163 24.1375 39.7011 23.783C39.486 23.4285 39.014 23.3081 38.6496 23.5154L35.0958 25.5054C34.5544 24.9402 34.2178 24.1843 34.2178 23.3549C34.2178 22.8165 34.131 22.2947 33.9748 21.8065L37.1781 20.0105C37.546 19.8032 37.6709 19.3483 37.4557 18.9938C37.2406 18.6393 36.7686 18.5189 36.4007 18.7263L33.305 20.462C32.6213 19.4821 31.601 18.7363 30.4037 18.3818L30.5043 14.7631C30.5148 14.3518 30.1781 14.0106 29.7547 14.0006C29.3244 13.9839 28.9739 14.3116 28.9635 14.723L28.8697 18.1544C28.8559 18.1544 28.8385 18.1544 28.8246 18.1544C27.7418 18.1544 26.7354 18.4654 25.8886 18.9938L23.9798 15.9404C23.7612 15.5892 23.2857 15.4755 22.9213 15.6862C22.5569 15.9002 22.4389 16.3551 22.6576 16.7062L24.7086 19.9938C23.9104 20.9001 23.4246 22.074 23.4246 23.3549C23.4246 24.0338 23.4766 24.7027 23.5773 25.3582L19.7007 25.6927C19.2773 25.7294 18.965 26.0906 19.0032 26.4987C19.0413 26.8866 19.378 27.1742 19.7701 27.1742C19.7944 27.1742 19.8153 27.1742 19.8395 27.1709L23.8861 26.8197C24.3061 28.3481 24.9932 29.7695 25.899 31.037L22.6368 32.8664C22.2689 33.0738 22.1439 33.5286 22.3591 33.8831C22.5014 34.1206 22.7617 34.251 23.0255 34.251C23.1573 34.251 23.2892 34.2175 23.4107 34.1473L26.8499 32.2209C27.7071 33.1741 28.6962 34.0102 29.7929 34.7058L27.9154 37.8027C27.7002 38.1573 27.8251 38.6121 28.193 38.8194C28.3145 38.8897 28.4498 38.9231 28.5817 38.9231C28.8489 38.9231 29.1057 38.7893 29.248 38.5552L31.1256 35.4583C32.2431 36.0068 33.4473 36.4182 34.714 36.6623L34.5336 40.2208C34.5128 40.6321 34.839 40.9799 35.2659 41C35.2797 41 35.2901 41 35.304 41C35.7135 41 36.0537 40.689 36.0745 40.2943L36.248 36.8763C36.6645 36.9131 37.0844 36.9332 37.5113 36.9332C38.0943 36.9332 38.653 36.8429 39.1806 36.6757L41.1136 39.7726C41.2559 40.0034 41.5127 40.1338 41.773 40.1338C41.9118 40.1338 42.0472 40.1004 42.1721 40.0268C42.5365 39.8161 42.6545 39.3579 42.4359 39.0067L40.5688 36.0135C41.4121 35.4516 42.0854 34.6657 42.4879 33.7426L46.1285 34.2075C46.1632 34.2142 46.1944 34.2142 46.2291 34.2142C46.6109 34.2142 46.944 33.9433 46.9926 33.5687C47.0516 33.1607 46.7497 32.7895 46.3332 32.7326ZM24.962 23.3549C24.962 21.3048 26.6903 19.6393 28.8177 19.6393C30.9416 19.6393 32.6734 21.3048 32.6734 23.3549C32.6734 25.9268 34.8425 28.017 37.5113 28.017C39.6387 28.017 41.367 29.6825 41.367 31.7327C41.367 32.0437 41.3253 32.3447 41.249 32.6323C41.2212 32.6958 41.1969 32.7594 41.1865 32.8296C41.1865 32.833 41.1865 32.8396 41.1865 32.843C40.6972 34.3513 39.2326 35.4483 37.5078 35.4483C30.5911 35.4449 24.962 30.0203 24.962 23.3549Z" fill="#375E77"/>
</g>
</g>
</g>
</g>
<defs>
<clipPath id="clip0">
<rect width="1920" height="6341" fill="white" transform="translate(-995 -3477)"/>
</clipPath>
</defs>
</svg>
