<svg width="54" height="51" viewBox="0 0 54 51">
<g opacity="0.7">
<path d="M35.5187 20.1616V13.6121C35.5187 13.2359 35.3688 12.8752 35.102 12.6092C34.8351 12.3432 34.4732 12.1938 34.0959 12.1938C33.7185 12.1938 33.3566 12.3432 33.0897 12.6092C32.8229 12.8752 32.673 13.2359 32.673 13.6121V20.1616L22.2973 27.0936C22.0428 27.263 21.85 27.5097 21.7473 27.7971C21.6447 28.0844 21.6377 28.3971 21.7274 28.6887C21.8172 28.9804 21.9988 29.2354 22.2455 29.4159C22.4921 29.5965 22.7906 29.693 23.0966 29.6911C23.3753 29.6878 23.6472 29.6049 23.88 29.452L32.673 23.6037V33.7706C32.6804 33.9081 32.7129 34.0431 32.7689 34.169L29.5715 36.2406C29.2647 36.4666 29.0593 36.8038 28.9995 37.1793C28.9397 37.5549 29.0303 37.9388 29.2517 38.2485C29.3827 38.4408 29.5591 38.598 29.7654 38.7064C29.9717 38.8147 30.2016 38.8709 30.4348 38.8699C30.7139 38.8695 30.9866 38.7863 31.2182 38.6309L34.0959 36.7186L36.9896 38.6309C37.2211 38.7863 37.4938 38.8695 37.7729 38.8699C38.0776 38.8684 38.3737 38.7695 38.6177 38.5877C38.8617 38.4059 39.0407 38.1508 39.1284 37.86C39.2161 37.5692 39.2079 37.258 39.1049 36.9722C39.0019 36.6864 38.8096 36.4412 38.5563 36.2724L35.4388 34.2008C35.4628 34.0691 35.4628 33.9342 35.4388 33.8024V23.5718L44.2478 29.4202C44.4793 29.5755 44.752 29.6587 45.0312 29.6592C45.2643 29.6602 45.4942 29.604 45.7005 29.4956C45.9068 29.3872 46.0832 29.23 46.2142 29.0377C46.4181 28.7349 46.5 28.3667 46.4437 28.0064C46.3874 27.6461 46.197 27.3202 45.9104 27.0936L35.5187 20.1616Z" fill="#375E77"/>
<path d="M46.518 0.00309H21.6897C20.2714 -0.0101364 18.8781 0.376234 17.6703 1.1177C16.4626 1.85918 15.4895 2.92559 14.8632 4.19415L5.07897 5.88332C3.47551 6.16713 2.05025 7.07278 1.11533 8.40192C0.180418 9.73106 -0.187935 11.3753 0.0909481 12.9746L5.46267 43.7144C5.72073 45.1339 6.46993 46.4184 7.57993 47.3443C8.68992 48.2702 10.0904 48.7789 11.5378 48.7819C11.8838 48.8049 12.231 48.8049 12.577 48.7819L15.6785 48.2241C16.4053 49.1089 17.3237 49.818 18.3649 50.2982C19.406 50.7785 20.5427 51.0173 21.6897 50.9969H46.518C48.4394 51.0528 50.3049 50.3484 51.7068 49.0376C53.1088 47.7267 53.9332 45.9161 54 44.0012V6.99881C53.9332 5.08395 53.1088 3.27329 51.7068 1.96245C50.3049 0.651619 48.4394 -0.0528096 46.518 0.00309ZM12.0814 45.8975C11.2188 46.0457 10.3324 45.8472 9.61628 45.3454C8.90016 44.8437 8.41264 44.0796 8.26044 43.2204L2.88872 12.4966C2.73978 11.6349 2.93849 10.7494 3.44156 10.033C3.94463 9.31669 4.7113 8.8275 5.57458 8.67204L14.2077 7.1741V44.0012C14.1839 44.2822 14.1839 44.5648 14.2077 44.8458L14.3036 45.4354L12.0814 45.8975ZM51.1543 44.0012C51.0882 45.1639 50.5638 46.2534 49.6954 47.0324C48.827 47.8115 47.6849 48.2169 46.518 48.1604H21.6897C20.8645 48.1736 20.0502 47.9699 19.329 47.5699C18.6077 47.1699 18.0048 46.5876 17.581 45.8816C17.2348 45.3152 17.0522 44.6645 17.0534 44.0012V6.99881C17.0466 6.61962 17.1062 6.24215 17.2293 5.88332C17.5559 4.97204 18.1632 4.18699 18.9642 3.64035C19.7653 3.09371 20.7193 2.81345 21.6897 2.83962H46.518C47.6849 2.7831 48.827 3.18852 49.6954 3.96756C50.5638 4.7466 51.0882 5.83613 51.1543 6.99881V44.0012Z" fill="#375E77"/>
</g>
</svg>
