<svg width="100%" height="100%" viewBox="0 0 963 120" fill="none" xmlns="http://www.w3.org/2000/svg">
  <g>
    <path d="M436.503 105.111V17.7813H476.601C480.865 17.7813 484.801 18.6423 488.409 20.3643C492.017 22.0863 495.133 24.4233 497.757 27.3753C500.381 30.2453 502.39 33.4843 503.784 37.0923C505.26 40.7003 505.998 44.3493 505.998 48.0393C505.998 51.4013 505.506 54.6403 504.522 57.7563C503.538 60.8723 502.103 63.7423 500.217 66.3663C498.331 68.9083 496.076 71.1223 493.452 73.0083L511.902 105.111H485.58L470.205 78.2973H460.488V105.111H436.503ZM460.488 57.3873H475.617C476.601 57.3873 477.544 57.0183 478.446 56.2803C479.348 55.5423 480.086 54.4763 480.66 53.0823C481.316 51.6883 481.644 50.0073 481.644 48.0393C481.644 45.9893 481.275 44.3083 480.537 42.9963C479.881 41.6023 479.02 40.5363 477.954 39.7983C476.97 39.0603 475.986 38.6913 475.002 38.6913H460.488V57.3873ZM581.742 84.2013V105.111H519.504V17.7813H580.635V38.6913H543.489V50.9913H575.223V70.4253H543.489V84.2013H581.742ZM592.896 105.111V17.7813H626.475C636.151 17.7813 644.228 19.7493 650.706 23.6853C657.266 27.5393 662.186 32.7873 665.466 39.4293C668.828 45.9893 670.509 53.2873 670.509 61.3233C670.509 70.1793 668.664 77.8873 664.974 84.4473C661.366 91.0073 656.241 96.0913 649.599 99.6993C643.039 103.307 635.331 105.111 626.475 105.111H592.896ZM646.155 61.3233C646.155 56.8133 645.376 52.8773 643.818 49.5153C642.26 46.0713 640.005 43.4063 637.053 41.5203C634.101 39.6343 630.575 38.6913 626.475 38.6913H616.881V84.2013H626.475C630.657 84.2013 634.183 83.2173 637.053 81.2493C640.005 79.2813 642.26 76.5753 643.818 73.1313C645.376 69.6053 646.155 65.6693 646.155 61.3233ZM720.301 105.849C713.659 105.849 707.632 104.619 702.22 102.159C696.808 99.6173 692.134 96.2553 688.198 92.0733C684.344 87.8093 681.351 83.0533 679.219 77.8053C677.169 72.4753 676.144 66.9813 676.144 61.3233C676.144 55.5013 677.251 49.9663 679.465 44.7183C681.679 39.4703 684.754 34.7963 688.69 30.6963C692.708 26.5143 697.423 23.2343 702.835 20.8563C708.329 18.4783 714.315 17.2893 720.793 17.2893C727.435 17.2893 733.462 18.5603 738.874 21.1023C744.286 23.5623 748.919 26.9243 752.773 31.1883C756.627 35.4523 759.579 40.2493 761.629 45.5793C763.761 50.8273 764.827 56.2393 764.827 61.8153C764.827 67.5553 763.72 73.0493 761.506 78.2973C759.374 83.5453 756.299 88.2603 752.281 92.4423C748.345 96.5423 743.671 99.8223 738.259 102.282C732.847 104.66 726.861 105.849 720.301 105.849ZM700.498 61.5693C700.498 64.5213 700.908 67.3913 701.728 70.1793C702.548 72.8853 703.778 75.3453 705.418 77.5593C707.058 79.6913 709.108 81.4133 711.568 82.7253C714.11 83.9553 717.103 84.5703 720.547 84.5703C723.991 84.5703 726.984 83.9143 729.526 82.6023C732.068 81.2903 734.118 79.5273 735.676 77.3133C737.316 75.0173 738.505 72.5163 739.243 69.8103C740.063 67.0223 740.473 64.1933 740.473 61.3233C740.473 58.3713 740.063 55.5423 739.243 52.8363C738.423 50.1303 737.193 47.7113 735.553 45.5793C733.913 43.3653 731.822 41.6433 729.28 40.4133C726.738 39.1833 723.786 38.5683 720.424 38.5683C716.98 38.5683 713.987 39.2243 711.445 40.5363C708.985 41.8483 706.935 43.6113 705.295 45.8253C703.655 47.9573 702.425 50.4173 701.605 53.2053C700.867 55.9113 700.498 58.6993 700.498 61.5693ZM798.978 62.1843V105.111H774.993V17.7813H793.689L828.744 62.1843V17.7813H852.729V105.111H833.664L798.978 62.1843ZM929.962 84.2013V105.111H867.724V17.7813H928.855V38.6913H891.709V50.9913H923.443V70.4253H891.709V84.2013H929.962Z" fill="#f2edf5"></path>
    <path d="M109.522 38.6913H84.43V105.111H60.445V38.6913H35.23V17.7813H109.522V38.6913ZM195.502 17.7813V105.111H171.517V70.9173H142.243V105.111H118.258V17.7813H142.243V50.0073H171.517V17.7813H195.502ZM272.746 84.2013V105.111H210.508V17.7813H271.639V38.6913H234.493V50.9913H266.227V70.4253H234.493V84.2013H272.746ZM349.95 105.111V59.1093L335.313 91.4583H322.521L307.884 59.1093V105.111H283.899V17.7813H310.098L328.917 58.8633L347.859 17.7813H373.935V105.111H349.95ZM451.12 84.2013V105.111H388.882V17.7813H450.013V38.6913H412.867V50.9913H444.601V70.4253H412.867V84.2013H451.12Z" fill="#f2edf5"></path>
    <path d="M436.5 17.7891C436.5 17.7891 442.5 17.7891 443.5 17.7891C444.5 17.7891 450 17.7793 450 17.7793L450.016 38.6808H436.5V17.7891Z" fill="#ECF03A"></path>
    <path d="M436.504 50.9863H444.602V70.4238H436.504V50.9863Z" fill="#ECF03A"></path>
    <path d="M436.498 84.2051H451.117V105.111H436.498V84.2051Z" fill="#ECF03A"></path>
  </g>
  <path d="M920.589 0.160327C924.853 0.160327 928.707 0.508826 932.151 1.20582C935.636 1.86183 938.568 2.96883 940.946 4.52683C943.365 6.08482 945.128 8.19632 946.235 10.8613C947.342 13.4853 947.67 16.7448 947.219 20.6398L944.943 41.9188C944.656 44.8298 945.087 47.2283 946.235 49.1143C947.424 50.9593 949.392 52.3328 952.139 53.2348C954.886 54.0958 958.473 54.5263 962.901 54.5263V65.5963C958.473 65.5963 954.886 66.0473 952.139 66.9493C949.392 67.8513 947.424 69.2453 946.235 71.1313C945.087 72.9763 944.656 75.3543 944.943 78.2653L947.219 99.4213C947.629 103.357 947.28 106.658 946.173 109.323C945.107 111.988 943.365 114.079 940.946 115.596C938.568 117.154 935.636 118.261 932.151 118.917C928.707 119.614 924.853 119.962 920.589 119.962V109.815C923.377 109.815 925.858 109.548 928.031 109.015C930.245 108.523 931.926 107.601 933.074 106.248C934.263 104.936 934.734 103.111 934.488 100.774L932.213 78.2038C931.803 74.1858 932.11 70.9468 933.135 68.4868C934.201 66.0268 935.944 64.1613 938.363 62.8903C940.782 61.5783 943.816 60.6558 947.465 60.1228C943.816 59.5488 940.782 58.5853 938.363 57.2323C935.944 55.8383 934.201 53.9113 933.135 51.4513C932.11 48.9913 931.803 45.8138 932.213 41.9188L934.488 19.3483C934.734 17.0113 934.263 15.1868 933.074 13.8748C931.926 12.5628 930.265 11.6403 928.092 11.1073C925.919 10.5743 923.418 10.3078 920.589 10.3078V0.160327Z" fill="#ECF03A"></path>
  <path d="M43.211 0.160327V10.3078C40.423 10.3078 37.922 10.5743 35.708 11.1073C33.535 11.6403 31.854 12.5628 30.665 13.8748C29.517 15.1868 29.066 17.0113 29.312 19.3483L31.5875 41.9188C31.9975 45.7728 31.6695 48.9503 30.6035 51.4513C29.5785 53.9113 27.918 55.8178 25.622 57.1708C23.326 58.5238 20.5175 59.4873 17.1965 60.0613C20.6405 60.6353 23.5105 61.5783 25.8065 62.8903C28.1025 64.1613 29.7425 66.0268 30.7265 68.4868C31.7105 70.9468 31.9975 74.1858 31.5875 78.2038L29.312 100.774C29.066 103.111 29.517 104.936 30.665 106.248C31.854 107.601 33.535 108.523 35.708 109.015C37.922 109.548 40.423 109.815 43.211 109.815V119.962C38.947 119.962 35.0725 119.614 31.5875 118.917C28.1435 118.261 25.212 117.154 22.793 115.596C20.415 114.038 18.6725 111.926 17.5655 109.261C16.4995 106.637 16.1715 103.378 16.5815 99.4828L18.857 78.2653C19.144 75.3543 18.7545 72.9763 17.6885 71.1313C16.6635 69.2453 14.798 67.8513 12.092 66.9493C9.386 66.0473 5.655 65.5963 0.899001 65.5963V54.5263C5.614 54.5263 9.3245 54.0958 12.0305 53.2348C14.7775 52.3328 16.6635 50.9593 17.6885 49.1143C18.7545 47.2283 19.144 44.8298 18.857 41.9188L16.5815 20.7013C16.1715 16.7653 16.4995 13.4648 17.5655 10.7998C18.6725 8.13482 20.415 6.04382 22.793 4.52683C25.212 2.96883 28.1435 1.86183 31.5875 1.20582C35.0725 0.508826 38.947 0.160327 43.211 0.160327Z" fill="#ECF03A"></path>
</svg>